<?xml version="1.0" encoding="UTF-8" standalone="no"?>
<svg
   xmlns:dc="http://purl.org/dc/elements/1.1/"
   xmlns:cc="http://creativecommons.org/ns#"
   xmlns:rdf="http://www.w3.org/1999/02/22-rdf-syntax-ns#"
   xmlns:svg="http://www.w3.org/2000/svg"
   xmlns="http://www.w3.org/2000/svg"
   xmlns:sodipodi="http://sodipodi.sourceforge.net/DTD/sodipodi-0.dtd"
   xmlns:inkscape="http://www.inkscape.org/namespaces/inkscape"
   width="64"
   height="64"
   version="1.1"
   viewBox="0 0 16.933 16.933"
   id="svg23"
   sodipodi:docname="folder.svg"
   inkscape:version="0.92.4 (5da689c313, 2019-01-14)">
  <metadata
     id="metadata27">
    <rdf:RDF>
      <cc:Work
         rdf:about="">
        <dc:format>image/svg+xml</dc:format>
        <dc:type
           rdf:resource="http://purl.org/dc/dcmitype/StillImage" />
      </cc:Work>
    </rdf:RDF>
  </metadata>
  <sodipodi:namedview
     pagecolor="#ffffff"
     bordercolor="#666666"
     borderopacity="1"
     objecttolerance="10"
     gridtolerance="10"
     guidetolerance="10"
     inkscape:pageopacity="0"
     inkscape:pageshadow="2"
     inkscape:window-width="1366"
     inkscape:window-height="700"
     id="namedview25"
     showgrid="false"
     inkscape:zoom="3.6875"
     inkscape:cx="-78.37467"
     inkscape:cy="260.62504"
     inkscape:window-x="0"
     inkscape:window-y="0"
     inkscape:window-maximized="1"
     inkscape:current-layer="svg23" />
  <defs
     id="defs7">
    <linearGradient
       id="a"
       x1="-197.1"
       x2="-196.91"
       y1="217.68"
       y2="219.37"
       gradientTransform="rotate(-45 -338.07 -140.03)"
       gradientUnits="userSpaceOnUse">
      <stop
         offset="0"
         id="stop2" />
      <stop
         stop-opacity="0"
         offset="1"
         id="stop4" />
    </linearGradient>
  </defs>
  <g
     id="g874">
    <path
       d="m 3.44,2.378 c -0.294,0 -0.395,0.269 -0.53,0.53 H 2.117 a 0.528,0.528 0 0 0 -0.53,0.528 v 5.292 c 0,0.293 0.237,0.53 0.53,0.53 h 12.7 c 0.293,0 0.529,-0.237 0.529,-0.53 V 3.436 A 0.528,0.528 0 0 0 14.816,2.907 H 7.674 C 7.519,2.658 7.438,2.377 7.144,2.377 Z"
       id="path9"
       inkscape:connector-curvature="0"
       style="fill:#476269;paint-order:markers stroke fill;fill-opacity:1" />
    <path
       d="m 3.44,2.378 c -0.294,0 -0.395,0.269 -0.53,0.53 H 2.117 a 0.528,0.528 0 0 0 -0.53,0.528 v 5.292 c 0,0.293 0.237,0.53 0.53,0.53 h 12.7 c 0.293,0 0.529,-0.237 0.529,-0.53 V 3.436 A 0.528,0.528 0 0 0 14.816,2.907 H 7.674 C 7.519,2.658 7.438,2.377 7.144,2.377 Z"
       id="path11"
       inkscape:connector-curvature="0"
       style="opacity:0.18000004;paint-order:markers stroke fill" />
    <rect
       x="2.381"
       y="3.6999891"
       width="12.171"
       height="5.027"
       ry="0.26499999"
       id="rect13"
       style="fill:#ffffff;paint-order:markers stroke fill" />
    <path
       d="m 8.4670892,4.230105 c -0.2929959,0 -0.3821594,0.2756395 -0.52916,0.5286309 L 7.6278679,5.2899596 H 1.0578173 c -0.29307527,0 -0.52863084,0.2360927 -0.52863084,0.52916 v 8.4670894 c 0,0.293075 0.23557409,0.528631 0.52863084,0.528631 H 15.875356 c 0.293075,0 0.52863,-0.234543 0.52863,-0.527599 V 4.7623606 c 0,-0.2940013 -0.23564,-0.5322556 -0.52863,-0.5322556 z"
       style="fill:#476269;stroke-width:1.00000656;paint-order:markers stroke fill;fill-opacity:1"
       id="path15"
       inkscape:connector-curvature="0" />
    <rect
       x="3.704"
       y="2.6399915"
       width="3.175"
       height="0.52899998"
       ry="0.26499999"
       id="rect17"
       style="opacity:0.25;paint-order:stroke markers fill" />
    <path
       opacity=".1"
       fill="url(#a)"
       id="path21"
       style="paint-order:stroke markers fill"
       d="m16.404 11.641-3.1744 3.1749h2.6458c0.29307 0 0.52864-0.23557 0.52864-0.52864z" />
  </g>
</svg>
