<?xml version="1.0" encoding="UTF-8" standalone="no"?>
<svg
   xmlns:dc="http://purl.org/dc/elements/1.1/"
   xmlns:cc="http://creativecommons.org/ns#"
   xmlns:rdf="http://www.w3.org/1999/02/22-rdf-syntax-ns#"
   xmlns:svg="http://www.w3.org/2000/svg"
   xmlns="http://www.w3.org/2000/svg"
   xmlns:sodipodi="http://sodipodi.sourceforge.net/DTD/sodipodi-0.dtd"
   xmlns:inkscape="http://www.inkscape.org/namespaces/inkscape"
   width="64"
   height="64"
   version="1.1"
   viewBox="0 0 16.933 16.933"
   id="svg33"
   sodipodi:docname="folder-publicshare.svg"
   inkscape:version="0.92.4 (5da689c313, 2019-01-14)">
  <metadata
     id="metadata37">
    <rdf:RDF>
      <cc:Work
         rdf:about="">
        <dc:format>image/svg+xml</dc:format>
        <dc:type
           rdf:resource="http://purl.org/dc/dcmitype/StillImage" />
      </cc:Work>
    </rdf:RDF>
  </metadata>
  <sodipodi:namedview
     pagecolor="#ffffff"
     bordercolor="#666666"
     borderopacity="1"
     objecttolerance="10"
     gridtolerance="10"
     guidetolerance="10"
     inkscape:pageopacity="0"
     inkscape:pageshadow="2"
     inkscape:window-width="833"
     inkscape:window-height="480"
     id="namedview35"
     showgrid="false"
     inkscape:zoom="3.6875"
     inkscape:cx="31.116359"
     inkscape:cy="32"
     inkscape:window-x="0"
     inkscape:window-y="0"
     inkscape:window-maximized="0"
     inkscape:current-layer="svg33" />
  <defs
     id="defs7">
    <linearGradient
       id="a"
       x1="-197.1"
       x2="-196.91"
       y1="217.68"
       y2="219.37"
       gradientTransform="rotate(-45 -338.07 -140.03)"
       gradientUnits="userSpaceOnUse">
      <stop
         offset="0"
         id="stop2" />
      <stop
         stop-opacity="0"
         offset="1"
         id="stop4" />
    </linearGradient>
  </defs>
  <g
     id="g865">
    <path
       d="m 3.44,2.378 c -0.294,0 -0.395,0.269 -0.53,0.53 H 2.117 a 0.528,0.528 0 0 0 -0.53,0.528 v 5.292 c 0,0.293 0.237,0.53 0.53,0.53 h 12.7 c 0.293,0 0.529,-0.237 0.529,-0.53 V 3.436 A 0.528,0.528 0 0 0 14.816,2.907 H 7.674 C 7.519,2.658 7.438,2.377 7.144,2.377 Z"
       id="path9"
       inkscape:connector-curvature="0"
       style="fill:#476269;paint-order:markers stroke fill;fill-opacity:1" />
    <path
       d="m 3.44,2.378 c -0.294,0 -0.395,0.269 -0.53,0.53 H 2.117 a 0.528,0.528 0 0 0 -0.53,0.528 v 5.292 c 0,0.293 0.237,0.53 0.53,0.53 h 12.7 c 0.293,0 0.529,-0.237 0.529,-0.53 V 3.436 A 0.528,0.528 0 0 0 14.816,2.907 H 7.674 C 7.519,2.658 7.438,2.377 7.144,2.377 Z"
       id="path11"
       inkscape:connector-curvature="0"
       style="opacity:0.18000004;paint-order:markers stroke fill" />
    <rect
       x="2.381"
       y="3.6999891"
       width="12.171"
       height="5.027"
       ry="0.26499999"
       id="rect13"
       style="fill:#ffffff;paint-order:markers stroke fill" />
    <rect
       x="0.52899998"
       y="5.2899852"
       width="15.875"
       height="9.5249996"
       ry="0.52899998"
       id="rect15"
       style="fill:#476269;paint-order:markers stroke fill;fill-opacity:1" />
    <path
       d="m 8.467,4.23 h 7.408 c 0.293,0 0.53,0.236 0.53,0.53 v 3.968 c 0,0.293 -0.237,0.529 -0.53,0.529 H 6.152 c -0.294,0 -0.677,-0.276 -0.53,-0.53 L 7.938,4.759 C 8.085,4.506 8.174,4.23 8.467,4.23 Z"
       id="path17"
       inkscape:connector-curvature="0"
       style="fill:#476269;paint-order:markers stroke fill;fill-opacity:1" />
    <rect
       x="3.704"
       y="2.6399915"
       width="3.175"
       height="0.52899998"
       ry="0.26499999"
       id="rect19"
       style="opacity:0.25;paint-order:stroke markers fill" />
    <g
       transform="matrix(0.57143,0,0,0.57143,3.931,-155.61)"
       id="g27"
       style="fill:#ffffff;paint-order:stroke markers fill">
      <path
         d="m 9.213,290.915 a 1.587,1.587 0 0 1 -1.275,0.646 1.587,1.587 0 0 1 -1.276,-0.645 3.704,2.381 0 0 0 -2.429,2.232 h 7.409 a 3.704,2.381 0 0 0 -2.429,-2.233 z"
         id="path21"
         inkscape:connector-curvature="0" />
      <circle
         cx="7.9380002"
         cy="287.59"
         r="1.587"
         id="circle23" />
      <path
         d="m 6.35,287.59 a 1.587,2.646 0 0 0 1.587,2.646 1.587,2.646 0 0 0 1.588,-2.646 z"
         id="path25"
         inkscape:connector-curvature="0" />
    </g>
    <path
       id="path31"
       style="paint-order:stroke markers fill"
       opacity=".1"
       fill="url(#a)"
       d="m16.404 11.641-3.1744 3.1749h2.6458c0.29307 0 0.52864-0.23557 0.52864-0.52864z" />
  </g>
</svg>
