<?xml version="1.0" encoding="UTF-8" standalone="no"?>
<svg
   xmlns:dc="http://purl.org/dc/elements/1.1/"
   xmlns:cc="http://creativecommons.org/ns#"
   xmlns:rdf="http://www.w3.org/1999/02/22-rdf-syntax-ns#"
   xmlns:svg="http://www.w3.org/2000/svg"
   xmlns="http://www.w3.org/2000/svg"
   xmlns:sodipodi="http://sodipodi.sourceforge.net/DTD/sodipodi-0.dtd"
   xmlns:inkscape="http://www.inkscape.org/namespaces/inkscape"
   width="64"
   height="64"
   version="1.1"
   viewBox="0 0 16.933 16.933"
   id="svg27"
   sodipodi:docname="folder-documents.svg"
   inkscape:version="0.92.4 (5da689c313, 2019-01-14)">
  <metadata
     id="metadata31">
    <rdf:RDF>
      <cc:Work
         rdf:about="">
        <dc:format>image/svg+xml</dc:format>
        <dc:type
           rdf:resource="http://purl.org/dc/dcmitype/StillImage" />
      </cc:Work>
    </rdf:RDF>
  </metadata>
  <sodipodi:namedview
     pagecolor="#ffffff"
     bordercolor="#666666"
     borderopacity="1"
     objecttolerance="10"
     gridtolerance="10"
     guidetolerance="10"
     inkscape:pageopacity="0"
     inkscape:pageshadow="2"
     inkscape:window-width="833"
     inkscape:window-height="480"
     id="namedview29"
     showgrid="false"
     inkscape:zoom="3.6875"
     inkscape:cx="32.883641"
     inkscape:cy="30.764687"
     inkscape:window-x="0"
     inkscape:window-y="0"
     inkscape:window-maximized="0"
     inkscape:current-layer="svg27" />
  <defs
     id="defs7">
    <linearGradient
       id="a"
       x1="-197.1"
       x2="-196.91"
       y1="217.68"
       y2="219.37"
       gradientTransform="rotate(-45 -338.07 -140.03)"
       gradientUnits="userSpaceOnUse">
      <stop
         offset="0"
         id="stop2" />
      <stop
         stop-opacity="0"
         offset="1"
         id="stop4" />
    </linearGradient>
  </defs>
  <path
     style="fill:#476269;paint-order:markers stroke fill;fill-opacity:1"
     inkscape:connector-curvature="0"
     id="path9"
     d="m 3.44,2.378 c -0.294,0 -0.395,0.269 -0.53,0.53 H 2.117 a 0.528,0.528 0 0 0 -0.53,0.528 v 5.292 c 0,0.293 0.237,0.53 0.53,0.53 h 12.7 c 0.293,0 0.529,-0.237 0.529,-0.53 V 3.436 A 0.528,0.528 0 0 0 14.816,2.907 H 7.674 C 7.519,2.658 7.438,2.377 7.144,2.377 Z" />
  <path
     style="opacity:0.18000004;paint-order:markers stroke fill"
     inkscape:connector-curvature="0"
     id="path11"
     d="m 3.44,2.378 c -0.294,0 -0.395,0.269 -0.53,0.53 H 2.117 a 0.528,0.528 0 0 0 -0.53,0.528 v 5.292 c 0,0.293 0.237,0.53 0.53,0.53 h 12.7 c 0.293,0 0.529,-0.237 0.529,-0.53 V 3.436 A 0.528,0.528 0 0 0 14.816,2.907 H 7.674 C 7.519,2.658 7.438,2.377 7.144,2.377 Z" />
  <rect
     style="fill:#ffffff;paint-order:markers stroke fill"
     id="rect13"
     ry="0.26499999"
     height="5.027"
     width="12.171"
     y="3.6999891"
     x="2.381" />
  <rect
     style="fill:#476269;paint-order:markers stroke fill;fill-opacity:1"
     id="rect15"
     ry="0.52899998"
     height="9.5249996"
     width="15.875"
     y="5.2899852"
     x="0.52899998" />
  <path
     style="fill:#476269;paint-order:markers stroke fill;fill-opacity:1"
     inkscape:connector-curvature="0"
     id="path17"
     d="m 8.467,4.23 h 7.408 c 0.293,0 0.53,0.236 0.53,0.53 v 3.968 c 0,0.293 -0.237,0.529 -0.53,0.529 H 6.152 c -0.294,0 -0.677,-0.276 -0.53,-0.53 L 7.938,4.759 C 8.085,4.506 8.174,4.23 8.467,4.23 Z" />
  <rect
     style="opacity:0.25;paint-order:stroke markers fill"
     id="rect19"
     ry="0.26499999"
     height="0.52899998"
     width="3.175"
     y="2.6399915"
     x="3.704" />
  <path
     style="fill:#ffffff;paint-order:stroke markers fill"
     inkscape:connector-curvature="0"
     id="path21"
     d="M 6.615,7.67 A 0.264,0.264 0 0 0 6.35,7.934 v 4.233 c 0,0.147 0.118,0.265 0.265,0.265 h 2.38 l 1.588,-1.587 V 7.935 A 0.264,0.264 0 0 0 10.319,7.67 Z m 0.264,0.529 h 0.85 V 9.188 H 7.517 A 0.4,0.4 0 0 0 7.729,9.476 V 9.837 C 7.441,9.778 7.227,9.649 7.088,9.45 6.948,9.25 6.879,8.983 6.879,8.649 Z m 1.136,0 h 0.85 V 9.188 H 8.653 c 0.01,0.074 0.029,0.13 0.058,0.17 0.03,0.04 0.08,0.078 0.154,0.118 V 9.837 C 8.577,9.778 8.363,9.649 8.224,9.45 8.084,9.25 8.015,8.983 8.015,8.649 Z" />
  <path
     d="m16.404 11.641-3.1744 3.1749h2.6458c0.29307 0 0.52864-0.23557 0.52864-0.52864z"
     fill="url(#a)"
     opacity=".1"
     style="paint-order:stroke markers fill"
     id="path25" />
</svg>
