<?xml version="1.0" encoding="UTF-8" standalone="no"?>
<svg
   xmlns:dc="http://purl.org/dc/elements/1.1/"
   xmlns:cc="http://creativecommons.org/ns#"
   xmlns:rdf="http://www.w3.org/1999/02/22-rdf-syntax-ns#"
   xmlns:svg="http://www.w3.org/2000/svg"
   xmlns="http://www.w3.org/2000/svg"
   xmlns:sodipodi="http://sodipodi.sourceforge.net/DTD/sodipodi-0.dtd"
   xmlns:inkscape="http://www.inkscape.org/namespaces/inkscape"
   width="64"
   height="64"
   version="1.1"
   viewBox="0 0 16.933 16.933"
   id="svg27"
   sodipodi:docname="folder-templates.svg"
   inkscape:version="0.92.4 (5da689c313, 2019-01-14)">
  <metadata
     id="metadata31">
    <rdf:RDF>
      <cc:Work
         rdf:about="">
        <dc:format>image/svg+xml</dc:format>
        <dc:type
           rdf:resource="http://purl.org/dc/dcmitype/StillImage" />
      </cc:Work>
    </rdf:RDF>
  </metadata>
  <sodipodi:namedview
     pagecolor="#ffffff"
     bordercolor="#666666"
     borderopacity="1"
     objecttolerance="10"
     gridtolerance="10"
     guidetolerance="10"
     inkscape:pageopacity="0"
     inkscape:pageshadow="2"
     inkscape:window-width="833"
     inkscape:window-height="480"
     id="namedview29"
     showgrid="false"
     inkscape:zoom="3.6875"
     inkscape:cx="30.232718"
     inkscape:cy="24.763347"
     inkscape:window-x="0"
     inkscape:window-y="0"
     inkscape:window-maximized="0"
     inkscape:current-layer="svg27" />
  <defs
     id="defs7">
    <linearGradient
       id="a"
       x1="-197.1"
       x2="-196.91"
       y1="217.68"
       y2="219.37"
       gradientTransform="rotate(-45 -338.07 -140.03)"
       gradientUnits="userSpaceOnUse">
      <stop
         offset="0"
         id="stop2" />
      <stop
         stop-opacity="0"
         offset="1"
         id="stop4" />
    </linearGradient>
  </defs>
  <g
     id="g853">
    <path
       d="m 3.44,2.378 c -0.294,0 -0.395,0.269 -0.53,0.53 H 2.117 a 0.528,0.528 0 0 0 -0.53,0.528 v 5.292 c 0,0.293 0.237,0.53 0.53,0.53 h 12.7 c 0.293,0 0.529,-0.237 0.529,-0.53 V 3.436 A 0.528,0.528 0 0 0 14.816,2.907 H 7.674 C 7.519,2.658 7.438,2.377 7.144,2.377 Z"
       id="path9"
       inkscape:connector-curvature="0"
       style="fill:#476269;paint-order:markers stroke fill;fill-opacity:1" />
    <path
       d="m 3.44,2.378 c -0.294,0 -0.395,0.269 -0.53,0.53 H 2.117 a 0.528,0.528 0 0 0 -0.53,0.528 v 5.292 c 0,0.293 0.237,0.53 0.53,0.53 h 12.7 c 0.293,0 0.529,-0.237 0.529,-0.53 V 3.436 A 0.528,0.528 0 0 0 14.816,2.907 H 7.674 C 7.519,2.658 7.438,2.377 7.144,2.377 Z"
       id="path11"
       inkscape:connector-curvature="0"
       style="opacity:0.18000004;paint-order:markers stroke fill" />
    <rect
       x="2.381"
       y="3.6999891"
       width="12.171"
       height="5.027"
       ry="0.26499999"
       id="rect13"
       style="fill:#ffffff;paint-order:markers stroke fill" />
    <rect
       x="0.52899998"
       y="5.2899852"
       width="15.875"
       height="9.5249996"
       ry="0.52899998"
       id="rect15"
       style="fill:#476269;paint-order:markers stroke fill;fill-opacity:1" />
    <path
       d="m 8.467,4.23 h 7.408 c 0.293,0 0.53,0.236 0.53,0.53 v 3.968 c 0,0.293 -0.237,0.529 -0.53,0.529 H 6.152 c -0.294,0 -0.677,-0.276 -0.53,-0.53 L 7.938,4.759 C 8.085,4.506 8.174,4.23 8.467,4.23 Z"
       id="path17"
       inkscape:connector-curvature="0"
       style="fill:#476269;paint-order:markers stroke fill;fill-opacity:1" />
    <rect
       x="3.704"
       y="2.6399915"
       width="3.175"
       height="0.52899998"
       ry="0.26499999"
       id="rect19"
       style="opacity:0.25;paint-order:stroke markers fill" />
    <path
       d="M 6.88,7.67 A 0.528,0.528 0 0 0 6.35,8.199 v 3.175 c 0,0.293 0.236,0.529 0.53,0.529 h 3.174 c 0.293,0 0.53,-0.236 0.53,-0.53 V 8.199 a 0.528,0.528 0 0 0 -0.53,-0.53 H 6.88 Z m 0,0.264 A 0.265,0.265 0 0 1 7.144,8.199 0.265,0.265 0 0 1 6.879,8.463 0.265,0.265 0 0 1 6.615,8.199 0.265,0.265 0 0 1 6.879,7.934 Z m 3.174,0 A 0.265,0.265 0 0 1 10.319,8.199 0.265,0.265 0 0 1 10.054,8.463 0.265,0.265 0 0 1 9.79,8.199 0.265,0.265 0 0 1 10.054,7.934 Z M 7.937,8.728 h 1.059 c 0.293,0 0.529,0.236 0.529,0.529 v 1.058 c 0,0.294 -0.236,0.53 -0.53,0.53 H 7.938 A 0.528,0.528 0 0 1 7.409,10.315 V 9.257 c 0,-0.293 0.236,-0.53 0.53,-0.53 z m 0,0.264 A 0.264,0.264 0 0 0 7.673,9.257 v 1.058 c 0,0.147 0.118,0.265 0.264,0.265 H 8.996 A 0.264,0.264 0 0 0 9.26,10.315 V 9.257 A 0.264,0.264 0 0 0 8.996,8.992 Z M 6.88,11.11 A 0.265,0.265 0 0 1 7.145,11.375 0.265,0.265 0 0 1 6.88,11.639 0.265,0.265 0 0 1 6.616,11.375 0.265,0.265 0 0 1 6.88,11.11 Z m 3.175,0 a 0.265,0.265 0 0 1 0.265,0.265 0.265,0.265 0 0 1 -0.265,0.264 0.265,0.265 0 0 1 -0.264,-0.264 0.265,0.265 0 0 1 0.264,-0.265 z"
       id="path21"
       inkscape:connector-curvature="0"
       style="fill:#ffffff;paint-order:stroke markers fill" />
    <path
       id="path25"
       style="paint-order:stroke markers fill"
       opacity=".1"
       fill="url(#a)"
       d="m16.404 11.641-3.1744 3.1749h2.6458c0.29307 0 0.52864-0.23557 0.52864-0.52864z" />
  </g>
</svg>
