<?xml version="1.0" encoding="UTF-8" standalone="no"?>
<svg
   xmlns:dc="http://purl.org/dc/elements/1.1/"
   xmlns:cc="http://creativecommons.org/ns#"
   xmlns:rdf="http://www.w3.org/1999/02/22-rdf-syntax-ns#"
   xmlns:svg="http://www.w3.org/2000/svg"
   xmlns="http://www.w3.org/2000/svg"
   xmlns:sodipodi="http://sodipodi.sourceforge.net/DTD/sodipodi-0.dtd"
   xmlns:inkscape="http://www.inkscape.org/namespaces/inkscape"
   width="64"
   height="64"
   version="1.1"
   id="svg28"
   sodipodi:docname="user-bookmarks.svg"
   inkscape:version="0.92.4 (5da689c313, 2019-01-14)">
  <metadata
     id="metadata32">
    <rdf:RDF>
      <cc:Work
         rdf:about="">
        <dc:format>image/svg+xml</dc:format>
        <dc:type
           rdf:resource="http://purl.org/dc/dcmitype/StillImage" />
      </cc:Work>
    </rdf:RDF>
  </metadata>
  <sodipodi:namedview
     pagecolor="#ffffff"
     bordercolor="#666666"
     borderopacity="1"
     objecttolerance="10"
     gridtolerance="10"
     guidetolerance="10"
     inkscape:pageopacity="0"
     inkscape:pageshadow="2"
     inkscape:window-width="833"
     inkscape:window-height="480"
     id="namedview30"
     showgrid="false"
     inkscape:zoom="3.6875"
     inkscape:cx="30.232718"
     inkscape:cy="32"
     inkscape:window-x="0"
     inkscape:window-y="0"
     inkscape:window-maximized="0"
     inkscape:current-layer="svg28" />
  <defs
     id="defs8">
    <style
       id="current-color-scheme"
       type="text/css" />
    <linearGradient
       id="a"
       x1="-197.1"
       x2="-196.91"
       y1="217.68"
       y2="219.37"
       gradientTransform="matrix(2.6726 -2.6726 2.6726 2.6726 4e-6 -1058.5)"
       gradientUnits="userSpaceOnUse">
      <stop
         offset="0"
         id="stop3" />
      <stop
         stop-opacity="0"
         offset="1"
         id="stop5" />
    </linearGradient>
  </defs>
  <g
     id="g853">
    <path
       d="m 13.001824,9.04802 c -1.111202,0 -1.492942,1.016712 -2.003188,2.003188 H 8.0014132 a 1.9956288,1.9956288 0 0 0 -2.003188,1.995629 V 33.04848 c 0,1.107423 0.8957652,2.003188 2.003188,2.003188 H 56.002333 c 1.107423,0 1.999409,-0.895765 1.999409,-2.003188 V 13.046837 A 1.9956288,1.9956288 0 0 0 55.998554,11.047428 H 29.00465 C 28.418812,10.106308 28.112665,9.0442404 27.001462,9.0442404 Z"
       style="fill:#476269;stroke-width:3.77959991;paint-order:markers stroke fill;fill-opacity:1"
       id="path10"
       inkscape:connector-curvature="0" />
    <path
       d="m 13.001824,9.04802 c -1.111202,0 -1.492942,1.016712 -2.003188,2.003188 H 8.0014132 a 1.9956288,1.9956288 0 0 0 -2.003188,1.995629 V 33.04848 c 0,1.107423 0.8957652,2.003188 2.003188,2.003188 H 56.002333 c 1.107423,0 1.999409,-0.895765 1.999409,-2.003188 V 13.046837 A 1.9956288,1.9956288 0 0 0 55.998554,11.047428 H 29.00465 C 28.418812,10.106308 28.112665,9.0442404 27.001462,9.0442404 Z"
       style="opacity:0.18000004;stroke-width:3.77959991;paint-order:markers stroke fill"
       id="path12"
       inkscape:connector-curvature="0" />
    <rect
       x="8.9992275"
       y="14.03705"
       width="46.001511"
       height="19.00005"
       ry="1.0015939"
       style="fill:#ffffff;stroke-width:3.77959991;paint-order:markers stroke fill"
       id="rect14" />
    <rect
       x="1.9994084"
       y="20.0466"
       width="60.001148"
       height="36.00069"
       ry="1.9994084"
       style="fill:#476269;stroke-width:3.77959991;paint-order:markers stroke fill;fill-opacity:1"
       id="rect16" />
    <path
       d="M 32.001873,16.04028 H 60.00115 c 1.107423,0 2.003188,0.891986 2.003188,2.003188 v 14.997453 c 0,1.107423 -0.895765,1.999408 -2.003188,1.999408 H 23.252099 c -1.111202,0 -2.558789,-1.043169 -2.003188,-2.003188 L 30.002465,18.039688 C 30.558066,17.08345 30.89445,16.04028 32.001873,16.04028 Z"
       style="fill:#476269;stroke-width:3.77959991;paint-order:markers stroke fill;fill-opacity:1"
       id="path18"
       inkscape:connector-curvature="0" />
    <rect
       x="13.999639"
       y="10.030684"
       width="12.00023"
       height="1.9994084"
       ry="1.0015939"
       style="opacity:0.25;stroke-width:3.77959991;paint-order:stroke markers fill"
       id="rect20" />
    <path
       id="path24"
       fill="#fff"
       d="m32 27.812-2.385 6.1875-6.615 0.34875 5.1412 4.185-1.6988 6.4012 5.5575-3.6 5.5575 3.6-1.6988-6.4012 5.1412-4.185-6.615-0.34875z" />
    <path
       id="path26"
       style="paint-order:stroke markers fill"
       stroke-width="3.7796"
       opacity=".1"
       fill="url(#a)"
       d="m62 43.998-11.998 12h10c1.1077 0 1.998-0.89037 1.998-1.998z" />
  </g>
</svg>
